<svg xmlns="http://www.w3.org/2000/svg" version="1.0" width="1280.000000" height="874.000000" preserveAspectRatio="xMidYMid meet"><rect id="backgroundrect" width="100%" height="100%" x="0" y="0" fill="none" stroke="none"/>
<metadata>
Created by potrace 1.16, written by Peter Selinger 2001-2019
</metadata>

<g class="currentLayer" style=""><title>Layer 1</title><g transform="translate(0,874) scale(0.10000000149011612,-0.10000000149011612) " fill="#ff0000" stroke="none" id="svg_1" class="selected" fill-opacity="1">
<path d="M2133 7927 c-173 -175 -212 -199 -345 -205 -111 -6 -182 12 -329 79 -132 61 -180 65 -234 18 -27 -24 -35 -39 -35 -64 0 -54 32 -81 189 -156 180 -87 262 -141 337 -222 73 -78 109 -143 134 -243 56 -217 -11 -526 -141 -656 -91 -91 -146 -106 -614 -172 -278 -40 -353 -60 -414 -112 -130 -112 -128 -280 3 -372 38 -26 45 -27 215 -34 215 -8 327 -33 476 -107 168 -84 287 -198 360 -347 53 -110 68 -187 62 -329 -6 -160 -19 -199 -232 -666 l-174 -384 92 -8 c51 -4 128 -11 173 -15 l81 -7 -594 -1360 c-326 -748 -596 -1368 -599 -1377 -4 -14 1 -18 23 -18 15 -1 690 -88 1498 -195 809 -106 1473 -190 1476 -187 4 4 212 743 464 1642 251 899 467 1659 481 1689 37 83 133 171 246 225 172 83 156 81 1143 126 469 22 667 34 710 45 225 58 444 241 528 441 18 41 42 155 77 355 45 262 55 302 87 368 42 88 138 190 223 238 113 64 91 62 925 73 418 5 921 10 1117 10 l357 0 30 54 31 53 127 7 c71 3 544 8 1053 12 518 3 941 10 962 15 45 12 68 46 99 149 12 41 44 124 70 184 l49 110 0 625 -1 626 -97 118 -97 117 -2460 0 -2461 0 -108 -120 -108 -120 -598 0 -598 0 -77 120 -77 120 -1682 0 -1682 0 -141 -143z m4366 -2082 c203 -48 354 -199 419 -420 27 -91 34 -264 14 -347 -47 -191 -169 -352 -318 -419 -110 -50 -137 -52 -555 -57 -449 -4 -523 3 -638 59 -89 43 -204 159 -253 254 -80 155 -107 338 -74 495 34 160 144 314 273 383 116 62 154 66 633 66 355 1 447 -2 499 -14z" id="svg_2" fill="#ff0000" fill-opacity="1"/>
<path d="M5496 5814 c-248 -60 -397 -287 -383 -584 8 -159 61 -304 154 -417 44 -55 143 -125 213 -151 51 -19 190 -40 190 -29 0 2 -21 35 -47 73 -61 91 -126 230 -155 329 -29 105 -32 306 -5 405 24 86 104 250 161 328 l46 62 -57 -1 c-32 0 -84 -7 -117 -15z" id="svg_3" fill="#ff0000" fill-opacity="1"/>
</g></g></svg>