<svg xmlns="http://www.w3.org/2000/svg" version="1.0" width="1280" height="874" preserveAspectRatio="xMidYMid meet" style=""><rect id="backgroundrect" width="100%" height="100%" x="0" y="0" fill="none" stroke="none"/>
<metadata>
Created by potrace 1.16, written by Peter Selinger 2001-2019
</metadata>

<g class="currentLayer" style=""><title>Layer 1</title><g transform="rotate(-23.399539947509766 674.4629516601562,447.93969726562494) translate(0,874) scale(0.10000000149011612,-0.10000000149011612) " fill="#ff0000" stroke="none" id="svg_1" class="" fill-opacity="1">
<path d="M3430.744663355256,6988.718897860865 c-133.37657976851108,-136.48225944303096 -163.44413243308873,-155.19982645236092 -265.9821966481868,-159.8792182046934 c-85.57688066072097,-4.67939175233249 -140.315245768029,9.358783504664979 -253.64679042682164,61.611991405711116 c-101.76710132626279,47.57381614871365 -138.77331999035835,50.69341065026864 -180.40531598746585,14.03817525699747 c-20.81599799855375,-18.717567009329958 -26.983701109236346,-30.416046390161185 -26.983701109236346,-49.91351202487989 c0,-42.11452577099241 24.670812442730373,-63.171788656488616 145.71198598987627,-121.66418556064474 c138.77331999035835,-67.85118040882111 201.99227687485492,-109.96570617981351 259.81449353750423,-173.13749483630212 c56.28029088497866,-60.83209278032237 84.03495488305033,-111.52550343059102 103.30902710393343,-189.51536596946585 c43.17392177477815,-169.23800170935837 -8.480591777188565,-410.22667695448166 -108.7057673257807,-511.6134982550189 c-70.1576228840145,-70.9707749103761 -112.56058176995732,-82.66925429120732 -473.371213744889,-134.1425635668647 c-214.3276830962201,-31.19594501554993 -272.1498997588694,-46.7939175233249 -319.1786359778242,-87.34864604353982 c-100.22517554859213,-87.34864604353982 -98.68324977092149,-218.37161510884954 2.3128886665059722,-290.1222886446144 c29.296589775742316,-20.277364260107458 34.693329997589586,-21.057262885496204 165.75702109959468,-26.516553263217443 c165.75702109959468,-6.239189003109987 252.10486464915098,-25.736654637828696 366.9783350856143,-83.44915291659606 c129.52176532433447,-65.51148453265486 221.26634909573804,-154.41992782697216 277.5466399807167,-270.6248230098957 c40.86103310827218,-85.78884879276231 52.42547644080204,-145.84104294769594 47.7996991077901,-256.58664775289816 c-4.6257773330119445,-124.78378006219972 -14.648294887871158,-155.19982645236092 -178.8633902097952,-519.4124845089063 l-134.1475426573464,-299.4810721492793 l70.92858577284981,-6.239189003109987 c39.31910733060153,-3.1195945015549933 98.68324977092149,-8.578884879276231 133.37657976851108,-11.698479380831225 l62.44799399566126,-5.4592903777212385 l-457.9519559681825,-1060.6621305286976 c-251.33390176031565,-583.3641717907838 -459.4938817458532,-1066.9013195318078 -461.8067704123591,-1073.9204071603065 c-3.0838515553412966,-10.918580755442477 0.7709628888353243,-14.03817525699747 17.732146443212454,-14.03817525699747 c11.564443332529862,-0.7798986253887487 531.9643932963736,-68.63107903420985 1154.9024074753156,-152.08023195080594 c623.7089770677773,-82.66925429120732 1135.6283352544324,-148.18073882386219 1137.9412239209385,-145.84104294769594 c3.0838515553412966,3.1195945015549933 163.44413243308873,579.46467866384 357.7267804195904,1280.5935428883247 c193.51168509766634,701.1288642244848 360.03966908609635,1293.8518195199335 370.8331495297909,1317.2487782815958 c28.52562688690699,64.73158590726611 102.5380642150981,133.36266494147597 189.65687065348973,175.47719071246837 c132.60561687967575,64.73158590726611 120.27021065831056,63.171788656488616 881.2105819387755,98.26722679898229 c361.581594863767,17.157769758552462 514.2322468531611,26.516553263217443 547.3836510730802,35.09543814249368 c173.46664998794793,45.2341202725474 342.3075226428839,187.95556871868834 407.06840530505116,343.935293796438 c13.877331999035833,31.97584364093868 32.38044133108362,120.88428693525599 59.36414244031996,276.86401201300566 c34.693329997589586,204.33343985185206 42.40295888594283,235.529384867402 67.0737713286732,287.0026941430594 c32.38044133108362,68.63107903420985 106.39287865927473,148.18073882386219 171.92472421027728,185.6158728425221 c87.11880643839163,49.91351202487989 70.1576228840145,48.35371477410239 713.1406721726748,56.932599653378624 c322.2624875331655,3.8994931269437414 710.0568206173335,7.798986253887483 861.1655468290571,7.798986253887483 l275.23375131421074,0 l23.128886665059724,42.11452577099241 l23.89984955389505,41.33462714560366 l97.91228688208616,5.4592903777212385 c54.73836510730801,2.3396958761662447 419.40381152641635,6.239189003109987 811.8239219435964,9.358783504664979 c399.3587764166979,2.3396958761662447 725.4760783940401,7.798986253887483 741.6662990595818,11.698479380831225 c34.693329997589586,9.358783504664979 52.42547644080204,35.87533676788242 76.3253259946971,116.2048951829235 c9.251554666023889,31.97584364093868 33.92236710875426,96.70742954820479 53.96740221847269,143.5013470715297 l37.777181552930884,85.78884879276231 l0,487.4366408679677 l-0.7709628888353243,488.21653949335644 l-74.78340021702644,92.02803779587231 l-74.78340021702644,91.24813917048355 l-1896.5687065348973,0 l-1897.3396694237326,0 l-83.263991994215,-93.5878350466498 l-83.263991994215,-93.5878350466498 l-461.03580752352383,0 l-461.03580752352383,0 l-59.36414244031996,93.5878350466498 l-59.36414244031996,93.5878350466498 l-1296.7595790210153,0 l-1296.7595790210153,0 l-108.7057673257807,-111.52550343059102 zm3366.023972655025,-1623.748938059374 c156.5054664335708,-37.435134018659916 272.9208626477047,-155.19982645236092 323.0334504220008,-327.5574226632743 c20.81599799855375,-70.9707749103761 26.21273822040102,-205.89323710262957 10.793480443694538,-270.6248230098957 c-36.235255775260235,-148.96063744925095 -130.29272821316977,-274.5243161368394 -245.16619864963306,-326.77752403788554 c-84.80591777188566,-38.994931269437416 -105.6219157704394,-40.554728520214915 -427.88440330360487,-44.454221647158654 c-346.1623370870605,-3.1195945015549933 -403.21359086087455,2.3396958761662447 -491.8743230769368,46.014018897936154 c-68.61569710634384,33.53564089171618 -157.27642932240613,124.003881436811 -195.053610875337,198.09425084874206 c-61.67703110682593,120.88428693525599 -82.49302910537968,263.6057353813969 -57.05125377381398,386.0498195674304 c26.21273822040102,124.78378006219972 111.01865599228667,244.88816837206699 210.47286865204347,298.70117352389065 c89.4316951048976,48.35371477410239 118.72828488063992,51.47330927565739 488.01950863276016,51.47330927565739 c273.6918255365401,0.7798986253887487 344.6204113093899,-1.5597972507774975 384.71048152882673,-10.918580755442477 z" id="svg_2" fill="#ff0000" fill-opacity="1"/>
<path d="M6023.492858508451,5340.793102414439 c-191.1987964311604,-46.7939175233249 -306.0722668676237,-223.83090548657077 -295.27878642392915,-455.460797227029 c6.167703110682593,-124.003881436811 47.02873621895477,-237.08918211817948 118.72828488063992,-325.217726787108 c33.92236710875426,-42.894424396381154 110.24769310345135,-97.48732817359354 164.21509532192403,-117.764692433701 c39.31910733060153,-14.818073882386217 146.4829488787116,-31.19594501554993 146.4829488787116,-22.6170601362737 c0,1.5597972507774975 -16.19022066554181,27.296451888606192 -36.235255775260235,56.932599653378624 c-47.02873621895477,70.9707749103761 -97.14132399325084,179.37668383941212 -119.49924776947525,256.58664775289816 c-22.3579237762244,81.88935566581857 -24.670812442730373,238.648979368957 -3.8548144441766206,315.8589432824431 c18.503109332047778,67.07128178343235 80.1801404388737,194.97465634718708 124.12502510248719,255.80674912750945 l35.46429288642491,48.35371477410239 l-43.94488466361347,-0.7798986253887487 c-24.670812442730373,0 -64.76088266216723,-5.4592903777212385 -90.20265799373293,-11.698479380831225 z" id="svg_3" fill="#ff0000" fill-opacity="1"/>
</g></g></svg>