<svg xmlns:dc="http://purl.org/dc/elements/1.1/" xmlns:cc="http://creativecommons.org/ns#" xmlns:rdf="http://www.w3.org/1999/02/22-rdf-syntax-ns#" xmlns:svg="http://www.w3.org/2000/svg" xmlns="http://www.w3.org/2000/svg" xmlns:sodipodi="http://sodipodi.sourceforge.net/DTD/sodipodi-0.dtd" xmlns:inkscape="http://www.inkscape.org/namespaces/inkscape" width="357.52935791015625" height="255.04205322265625" sodipodi:version="0.32" inkscape:version="0.46dev+devel" version="1.0" sodipodi:docname="floatingbrainiac_Uzi.svg" inkscape:output_extension="org.inkscape.output.svg.inkscape" style=""><rect id="backgroundrect" width="100%" height="100%" x="0" y="0" fill="none" stroke="none"/>
  <defs id="defs2505"/>
  <sodipodi:namedview id="base" pagecolor="#ffffff" bordercolor="#666666" borderopacity="1.0" gridtolerance="10000" guidetolerance="10" objecttolerance="10" inkscape:pageopacity="0.0" inkscape:pageshadow="2" inkscape:zoom="0.35" inkscape:cx="375" inkscape:cy="520" inkscape:document-units="px" inkscape:current-layer="layer1"/>
  <metadata id="metadata2508">
    <rdf:RDF>
      <cc:Work rdf:about="">
        <dc:format>image/svg+xml</dc:format>
        <dc:type rdf:resource="http://purl.org/dc/dcmitype/StillImage"/>
      </cc:Work>
    </rdf:RDF>
  </metadata>
  
<g class="currentLayer" style=""><title>Layer 1</title><g inkscape:label="Layer 1" inkscape:groupmode="layer" id="layer1" class="" fill="#990098" fill-opacity="1">
    <path style="fill-rule: evenodd; stroke: none; visibility: visible;" d="M229.427506171875,-0.000002614257809341325 L229.28229617187498,0.02903838574218298 L229.137086171875,0.08712138574219352 L228.991876171875,0.17424638574219387 L228.846676171875,0.31945338574219306 L228.55625617187502,0.7260333857421841 L228.26583617187498,1.248779385742182 L227.62692617187503,2.7008523857421807 L226.900896171875,4.559505385742185 L225.129366171875,9.177097385742186 L224.02579617187502,11.703703385742187 L222.689886171875,14.317434385742189 L221.121646171875,16.873082385742194 L219.292036171875,19.283523385742185 L218.885446171875,19.69010338574219 L75.36258617187502,19.69010338574219 L71.96473617187502,22.53616638574219 L60.028696171875026,22.53616638574219 L57.792506171875004,25.35319038574218 L45.653176171875,25.324150385742186 L44.05589617187499,13.242900385742189 L43.475066171875,10.687252385742184 L42.71998617187501,8.538184385742184 L42.255326171875,7.6378993857421875 L41.76162617187501,6.824739385742191 L41.18079617187499,6.098702385742186 L40.512836171874994,5.430749385742189 L39.786806171875014,4.878961385742187 L38.94459617187499,4.385257385742193 L38.015276171875,3.9496353857421838 L36.969786171875,3.6011373857421916 L34.530296171874994,3.049350385742187 L31.568076171874992,2.7008523857421807 L23.872086171874997,2.3813963857421925 L13.388116171874998,2.352355385742186 L0.08713617187498812,13.881812385742194 L0.0000061718749861938704,29.012410385742186 L0.11617617187499718,29.012410385742186 L0.5808361718750064,80.76428038574218 L22.361926171875012,80.8804503857422 L96.94038617187499,119.62174038574219 L92.49704617187501,168.49851038574218 L91.509636171875,171.3155403857422 L86.95012617187501,186.03956038574216 L82.73911617187503,202.88360038574217 L81.17087617187502,211.42178038574218 L80.154426171875,219.69860038574217 L79.86400617187502,227.45267038574218 L80.44483617187501,234.36453038574217 L81.11278617187497,237.44293038574222 L82.07115617187497,240.2018703857422 L83.31994617187502,242.6123103857422 L84.88818617187502,244.6742503857422 L86.77587617187498,246.30057038574216 L89.04111617187499,247.52031038574216 L91.65484617187502,248.24635038574218 L94.67514617187499,248.4496403857422 L116.48528617187498,248.59485038574218 L116.48528617187498,255.0420503857422 L158.508266171875,255.0420503857422 L158.508266171875,246.44578038574218 L168.87606617187498,246.44578038574218 L168.87606617187498,168.2081003857422 L168.788946171875,168.2081003857422 L168.788946171875,142.21600038574218 L191.44127617187502,154.8199903857422 L228.35296617187498,154.8199903857422 L242.583276171875,147.50154038574217 L242.554236171875,104.7525203857422 L256.668386171875,90.63838038574218 L285.971206171875,90.63838038574218 L293.376786171875,86.6887403857422 L308.129846171875,86.6887403857422 L312.108526171875,79.31221038574219 L326.86157617187496,79.31221038574219 L329.707646171875,75.88532038574218 L357.52935617187495,75.88532038574218 L357.52935617187495,57.18262038574218 L329.707646171875,57.18262038574218 L326.30979617187495,54.30752038574218 L309.843286171875,54.30752038574218 L306.445436171875,47.51182038574218 L292.244166171875,47.51182038574218 L292.244166171875,25.35319038574218 L289.427146171875,24.801400385742184 L289.369056171875,16.205128385742185 L289.427146171875,16.205128385742185 L289.456186171875,16.147046385742186 L289.456186171875,16.030880385742194 L289.514266171875,15.537175385742188 L289.630436171875,13.765646385742187 L289.630436171875,12.574947385742192 L289.572356171875,11.268081385742192 L289.427146171875,9.845050385742184 L289.310986171875,9.177097385742186 L289.281936171875,9.177097385742186 L289.136736171875,8.392977385742185 L288.701106171875,6.911863385742194 L288.091236171875,5.517873385742192 L287.307116171875,4.181966385742186 L286.813416171875,3.572096385742185 L286.290666171875,2.9912673857421908 L285.680796171875,2.468521385742193 L285.012846171875,2.0038573857421937 L284.286806171875,1.5972773857421885 L283.473646171875,1.248779385742182 L282.573356171875,0.9583653857421837 L281.614996171875,0.7260333857421841 L280.598536171875,0.6098673857421915 L279.465926171875,0.5517853857421926 L272.873516171875,0.5517853857421926 L272.292686171875,0.5808263857421849 L271.740896171875,0.7260333857421841 L271.189106171875,0.9583653857421837 L270.637326171875,1.277821385742186 L270.114576171875,1.6844013857421913 L269.620876171875,2.1781063857421827 L268.662506171875,3.397847385742182 L267.762216171875,4.84992038574218 L266.920026171875,6.4472003857421925 L265.438906171875,10.01929838574219 L264.277246171875,13.562356385742191 L263.406006171875,16.669792385742184 L262.883256171875,18.905984385742187 L262.738046171875,19.515854385742188 L262.709006171875,19.69010338574219 L262.709006171875,19.719144385742183 L262.709006171875,19.748186385742187 L259.311156171875,23.66878238574219 L246.823326171875,23.66878238574219 L240.57941617187498,19.69010338574219 L236.077996171875,19.69010338574219 L236.077996171875,-0.000002614257809341325 L229.427506171875,-0.000002614257809341325 zM171.402676171875,110.15423038574218 L183.60008617187498,110.15423038574218 L183.54199617187498,110.85123038574218 L183.425836171875,111.95481038574218 L183.396796171875,113.0583803857422 L183.396796171875,113.61016038574218 L183.45487617187501,114.16196038574219 L183.54199617187498,114.7137403857422 L183.658166171875,115.26553038574218 L183.91954617187503,116.3691003857422 L184.15187617187502,117.50172038574217 L184.52941617187503,119.7379103857422 L184.732706171875,120.8705303857422 L184.994076171875,121.9741103857422 L185.313536171875,123.07768038574218 L185.720106171875,124.1522203857422 L186.184776171875,125.34291038574219 L186.678476171875,126.70786038574218 L187.636846171875,129.64105038574218 L188.711386171875,132.5451903857422 L189.29220617187502,133.8811003857422 L189.87303617187501,135.04276038574218 L191.81881617187503,138.4696503857422 L192.719106171875,139.95077038574217 L193.15472617187498,140.58968038574218 L193.590346171875,141.1414703857422 L193.99692617187497,141.60613038574218 L194.37446617187499,141.95463038574218 L194.57775617187502,142.07079038574219 L194.752006171875,142.15791038574218 L194.92625617187502,142.2450403857422 L195.10049617187502,142.2450403857422 L195.274746171875,142.2450403857422 L195.44899617187502,142.1869603857422 L195.623246171875,142.0998303857422 L195.76845617187502,141.95463038574218 L195.913656171875,141.78038038574218 L196.08790617187498,141.5770903857422 L196.349286171875,140.9672203857422 L196.523526171875,140.41543038574218 L196.63969617187502,139.89269038574218 L196.63969617187502,139.36993038574218 L196.610656171875,138.8181503857422 L196.494486171875,138.2954003857422 L196.349286171875,137.7436203857422 L195.942706171875,136.6110003857422 L194.89721617187502,134.08439038574218 L194.403506171875,132.60328038574218 L194.171176171875,131.7901203857422 L193.99692617187497,130.94792038574218 L193.096636171875,126.27224038574218 L192.980476171875,125.25579038574219 L192.89335617187498,124.09413038574218 L192.80622617187498,120.8705303857422 L194.28734617187501,111.43206038574218 L194.781046171875,110.15423038574218 L236.86211617187502,110.15423038574218 L236.86211617187502,145.17823038574218 L226.058696171875,150.2604803857422 L192.573896171875,150.2604803857422 L168.788946171875,136.5238803857422 L168.788946171875,113.0583803857422 L171.402676171875,110.15423038574218 z" id="path75" fill="#990098" fill-opacity="1"/>
  </g></g></svg>