<svg xmlns:dc="http://purl.org/dc/elements/1.1/" xmlns:cc="http://creativecommons.org/ns#" xmlns:rdf="http://www.w3.org/1999/02/22-rdf-syntax-ns#" xmlns:svg="http://www.w3.org/2000/svg" xmlns="http://www.w3.org/2000/svg" xmlns:sodipodi="http://sodipodi.sourceforge.net/DTD/sodipodi-0.dtd" xmlns:inkscape="http://www.inkscape.org/namespaces/inkscape" width="357.52935791015625" height="255.04205322265625" sodipodi:version="0.32" inkscape:version="0.46dev+devel" version="1.0" sodipodi:docname="floatingbrainiac_Uzi.svg" inkscape:output_extension="org.inkscape.output.svg.inkscape" style=""><rect id="backgroundrect" width="100%" height="100%" x="0" y="0" fill="none" stroke="none"/>
  <defs id="defs2505"/>
  <sodipodi:namedview id="base" pagecolor="#ffffff" bordercolor="#666666" borderopacity="1.0" gridtolerance="10000" guidetolerance="10" objecttolerance="10" inkscape:pageopacity="0.0" inkscape:pageshadow="2" inkscape:zoom="0.35" inkscape:cx="375" inkscape:cy="520" inkscape:document-units="px" inkscape:current-layer="layer1"/>
  <metadata id="metadata2508">
    <rdf:RDF>
      <cc:Work rdf:about="">
        <dc:format>image/svg+xml</dc:format>
        <dc:type rdf:resource="http://purl.org/dc/dcmitype/StillImage"/>
      </cc:Work>
    </rdf:RDF>
  </metadata>
  
<g class="currentLayer" style=""><title>Layer 1</title><g inkscape:label="Layer 1" inkscape:groupmode="layer" id="layer1" class="" fill="#990098" fill-opacity="1" transform="rotate(-22.818525314331055 178.7646789550782,131.43408203124997) ">
    <path style="fill-rule: evenodd; stroke: none; visibility: visible;" d="M221.54144837152253,26.956518658401432 L221.41884141873965,26.980311852647535 L221.2962344659568,27.02789906043643 L221.1736275131739,27.099280281768085 L221.05102900381456,27.218247891591968 L220.80581509824884,27.551357526817494 L220.56060119268307,27.979641577620797 L220.0211424212314,29.169320133749594 L219.40812454416402,30.69210832510393 L217.91234673916827,34.475286018891985 L216.9805558509196,36.545325870873505 L215.85259046084892,38.68674694418668 L214.52845901237976,40.78058080971098 L212.9836418036402,42.75544706541138 L212.6403406471635,43.08855670063692 L91.45791161829246,43.08855670063692 L88.58896296108377,45.420326605105636 L78.51085888633384,45.420326605105636 L76.62274896454106,47.72830495392155 L66.37299853326451,47.7045125789721 L65.02434738292345,37.806384829037306 L64.5339280152155,35.71255096351301 L63.896381992852795,33.951826733214254 L63.504049876055824,33.21422624143153 L63.08719805738698,32.548006970980474 L62.596778689679,31.95316728326773 L62.03279177293191,31.40591562264055 L61.419773895864594,30.953837558294474 L60.70866032446274,30.549347521033944 L59.92399609086881,30.19244387226563 L59.04124460636387,29.90692062553233 L56.981479884620995,29.454843380482906 L54.48035208576092,29.169320133749594 L47.98230179619799,28.907590900559068 L39.1302419190062,28.883797706312947 L27.89966119573721,38.329843295418385 L27.82609364669808,50.72629167095136 L27.924180897609087,50.72629167095136 L28.316513014406066,93.12642580922495 L46.707209751472575,93.22160350198936 L109.67696199883231,124.96221292711269 L105.92526185711871,165.00678724385807 L105.09154977635751,167.31477050845396 L101.2417623837329,179.3781108873547 L97.68622830041778,193.1783765672315 L96.36209685194862,200.17367890696775 L95.50386506931554,206.95484987215886 L95.2586511637498,213.30773350936005 L95.74907053145778,218.97059730819413 L96.31304900478132,221.4927201403017 L97.12224138367064,223.75311046203208 L98.17664766812574,225.72797589843583 L99.50077911659491,227.41731644951295 L101.09463572907814,228.74975499041506 L103.00727379616627,229.74908389609166 L105.2141567291404,230.34392604169437 L107.76432393174419,230.5104808593072 L126.17954881410607,230.629450927021 L126.17954881410607,235.91162034073065 L161.6613305416418,235.91162034073065 L161.6613305416418,228.86872505812894 L170.4153031679226,228.86872505812894 L170.4153031679226,164.76885530139697 L170.341744062307,164.76885530139697 L170.341744062307,143.47361463597906 L189.4680656292237,153.8000215209372 L220.6341687417222,153.8000215209372 L232.64942214200866,147.80403989391098 L232.62490244013676,112.77991067346466 L244.5420770329357,101.21624294036876 L269.2836889614869,101.21624294036876 L275.5365337889076,97.98031608791125 L287.99316715315825,97.98031608791125 L291.3525351780749,91.93674971098613 L303.80916009890205,91.93674971098613 L306.2122175336982,89.12911018651853 L329.7032655628193,89.12911018651853 L329.7032655628193,73.8060505802108 L306.2122175336982,73.8060505802108 L303.34326887648945,71.4504907586826 L289.4398971109868,71.4504907586826 L286.5709484537781,65.88279645964633 L274.58021475536356,65.88279645964633 L274.58021475536356,47.72830495392155 L272.20168546586285,47.27622525098216 L272.1526376186956,40.23332832978713 L272.20168546586285,40.23332832978713 L272.22620516773475,40.18574194129491 L272.22620516773475,40.09056752571714 L272.2752445714785,39.686076669159945 L272.37333182238945,38.23466887984061 L272.37333182238945,37.25913316841012 L272.32429241864577,36.1884222221052 L272.20168546586285,35.02253767951917 L272.1036066583754,34.475286018891985 L272.07907851307993,34.475286018891985 L271.95648000372057,33.83285912339037 L271.588659145372,32.61938737301546 L271.07372007579215,31.477296024675546 L270.41165435155756,30.382791884124515 L269.9948025328888,29.883127431286212 L269.5534225689245,29.407256172694026 L269.0384834993447,28.978972121890724 L268.4745050260211,28.59827445957965 L267.8614787055303,28.26516482435411 L267.1748932794238,27.979641577620797 L266.4147403042782,27.741706357973033 L265.6055563688125,27.551357526817494 L264.74731614275584,27.45618311123973 L263.7910055526353,27.408596722747504 L258.2247545947446,27.408596722747504 L257.7343352270366,27.43238991699361 L257.2684355612005,27.551357526817494 L256.8025358953644,27.741706357973033 L256.33664467295176,28.00343559116357 L255.89526470898758,28.33654522638911 L255.47841289031874,28.74103608294629 L254.66922051142942,29.740365807919552 L253.90906753628386,30.930044364048356 L253.19797085172902,32.238690530001044 L251.94739850887544,35.16529848358917 L250.96655977345952,38.06811406222784 L250.23093494360933,40.614025992098206 L249.78955497964512,42.446130624431966 L249.66694802686223,42.94579507727026 L249.64242832499036,43.08855670063692 L249.64242832499036,43.112349894883025 L249.64242832499036,43.13614390842581 L246.7734796677817,46.348275108747245 L236.22947592719567,46.348275108747245 L230.95747827861436,43.08855670063692 L227.156738733157,43.08855670063692 L227.156738733157,26.956518658401432 L221.54144837152253,26.956518658401432 zM172.54862699528107,117.20551362416099 L182.84741683030137,117.20551362416099 L182.7983689831341,117.77656339481425 L182.70029017564664,118.68072280069302 L182.67577047377478,119.58487401360524 L182.67577047377478,120.03694552357803 L182.72480987751854,120.48903341948402 L182.7983689831341,120.94110492945683 L182.89645623404513,121.39318463239621 L183.117150437739,122.29733584530842 L183.3133164961375,123.22528762613665 L183.63208950731885,125.0573906198771 L183.80373586384547,125.98534240070533 L184.0244216241158,126.88950180658412 L184.29415523155342,127.79365301949633 L184.6374395011831,128.67402005042567 L185.0297800614036,129.6495483881862 L185.44663188007246,130.76784736157666 L186.25582425896178,133.17100012597035 L187.1631038887621,135.55035232244802 L187.65351481304657,136.64485892088902 L188.14393418075454,137.5966030766667 L189.78683864040505,140.40424260113429 L190.54699161555064,141.61771926728915 L190.9148040304757,142.1411760950769 L191.28261644540083,142.59325579801632 L191.62590915845402,142.97395018314074 L191.94468216963537,143.25947506846737 L192.11632852616202,143.3546445682652 L192.26345518081675,143.42602169311357 L192.4105818354715,143.4974070109285 L192.55770004670273,143.4974070109285 L192.70482670135746,143.4974070109285 L192.85195335601222,143.4498222610296 L192.99908001066694,143.37843694321464 L193.12168696344983,143.25947506846737 L193.24428547280917,143.11671262580404 L193.3914121274639,142.9501578081913 L193.61210633115778,142.450493355353 L193.759224542389,141.9984136524136 L193.85731179330003,141.57013451739024 L193.85731179330003,141.1418389964337 L193.83279209142813,140.68976748646094 L193.73470484051714,140.261480158471 L193.61210633115778,139.80940864849816 L193.26881361810456,138.88145686766995 L192.38606213359964,136.81141373850176 L191.96920187150727,135.5979452653135 L191.77303581310878,134.93172599486243 L191.62590915845402,134.24171434946192 L190.86575618330846,130.41094535140166 L190.767677375821,129.57817126333782 L190.69411827020534,128.62642710756015 L190.6205507211662,125.98534240070533 L191.8711230640198,118.25243547270308 L192.28797488268862,117.20551362416099 L227.81880445739162,117.20551362416099 L227.81880445739162,145.9005597753222 L218.69701941618573,150.06443021564138 L190.42438466276775,150.06443021564138 L170.341744062307,138.81007974282159 L170.341744062307,119.58487401360524 L172.54862699528107,117.20551362416099 z" id="path75" fill="#990098" fill-opacity="1"/>
  </g></g></svg>